<mxfile host="app.diagrams.net" agent="Mozilla/5.0 (Windows NT 10.0; Win64; x64) AppleWebKit/537.36 (KHTML, like Gecko) Chrome/127.0.0.0 Safari/537.36 OPR/113.0.0.0" version="24.8.3">
  <diagram name="Página-1" id="QOpxTufv3usNSbVPgcsH">
    <mxGraphModel dx="1009" dy="586" grid="1" gridSize="10" guides="1" tooltips="1" connect="1" arrows="1" fold="1" page="1" pageScale="1" pageWidth="827" pageHeight="1169" math="0" shadow="0">
      <root>
        <mxCell id="0" />
        <mxCell id="1" parent="0" />
        <mxCell id="vW3I8cVeebGqOr11pYuI-1" value="SENDER 1" style="whiteSpace=wrap;html=1;aspect=fixed;" vertex="1" parent="1">
          <mxGeometry x="40" y="80" width="80" height="80" as="geometry" />
        </mxCell>
        <mxCell id="vW3I8cVeebGqOr11pYuI-2" value="SENDER 2" style="whiteSpace=wrap;html=1;aspect=fixed;" vertex="1" parent="1">
          <mxGeometry x="150" y="80" width="80" height="80" as="geometry" />
        </mxCell>
        <mxCell id="vW3I8cVeebGqOr11pYuI-3" value="SENDER 3" style="whiteSpace=wrap;html=1;aspect=fixed;" vertex="1" parent="1">
          <mxGeometry x="260" y="80" width="80" height="80" as="geometry" />
        </mxCell>
        <mxCell id="vW3I8cVeebGqOr11pYuI-4" value="SENDER ANIMAL" style="whiteSpace=wrap;html=1;aspect=fixed;" vertex="1" parent="1">
          <mxGeometry x="370" y="80" width="80" height="80" as="geometry" />
        </mxCell>
        <mxCell id="vW3I8cVeebGqOr11pYuI-5" value="RECEIVER" style="whiteSpace=wrap;html=1;aspect=fixed;" vertex="1" parent="1">
          <mxGeometry x="200" y="240" width="80" height="80" as="geometry" />
        </mxCell>
        <mxCell id="vW3I8cVeebGqOr11pYuI-6" value="" style="shape=flexArrow;endArrow=classic;html=1;rounded=0;exitX=0.5;exitY=1;exitDx=0;exitDy=0;entryX=0;entryY=0.5;entryDx=0;entryDy=0;" edge="1" parent="1" source="vW3I8cVeebGqOr11pYuI-1" target="vW3I8cVeebGqOr11pYuI-5">
          <mxGeometry width="50" height="50" relative="1" as="geometry">
            <mxPoint x="390" y="330" as="sourcePoint" />
            <mxPoint x="440" y="280" as="targetPoint" />
          </mxGeometry>
        </mxCell>
        <mxCell id="vW3I8cVeebGqOr11pYuI-7" value="" style="shape=flexArrow;endArrow=classic;html=1;rounded=0;exitX=0.5;exitY=1;exitDx=0;exitDy=0;entryX=0.25;entryY=0;entryDx=0;entryDy=0;" edge="1" parent="1" source="vW3I8cVeebGqOr11pYuI-2" target="vW3I8cVeebGqOr11pYuI-5">
          <mxGeometry width="50" height="50" relative="1" as="geometry">
            <mxPoint x="390" y="330" as="sourcePoint" />
            <mxPoint x="440" y="280" as="targetPoint" />
          </mxGeometry>
        </mxCell>
        <mxCell id="vW3I8cVeebGqOr11pYuI-8" value="" style="shape=flexArrow;endArrow=classic;html=1;rounded=0;exitX=0.5;exitY=1;exitDx=0;exitDy=0;entryX=0.75;entryY=0;entryDx=0;entryDy=0;" edge="1" parent="1" source="vW3I8cVeebGqOr11pYuI-3" target="vW3I8cVeebGqOr11pYuI-5">
          <mxGeometry width="50" height="50" relative="1" as="geometry">
            <mxPoint x="390" y="330" as="sourcePoint" />
            <mxPoint x="440" y="280" as="targetPoint" />
          </mxGeometry>
        </mxCell>
        <mxCell id="vW3I8cVeebGqOr11pYuI-9" value="" style="shape=flexArrow;endArrow=classic;html=1;rounded=0;exitX=0.5;exitY=1;exitDx=0;exitDy=0;entryX=1;entryY=0.5;entryDx=0;entryDy=0;" edge="1" parent="1" source="vW3I8cVeebGqOr11pYuI-4" target="vW3I8cVeebGqOr11pYuI-5">
          <mxGeometry width="50" height="50" relative="1" as="geometry">
            <mxPoint x="390" y="330" as="sourcePoint" />
            <mxPoint x="440" y="280" as="targetPoint" />
          </mxGeometry>
        </mxCell>
        <mxCell id="vW3I8cVeebGqOr11pYuI-10" value="GATEWAY" style="whiteSpace=wrap;html=1;aspect=fixed;" vertex="1" parent="1">
          <mxGeometry x="200" y="400" width="80" height="80" as="geometry" />
        </mxCell>
        <mxCell id="vW3I8cVeebGqOr11pYuI-11" value="" style="shape=flexArrow;endArrow=classic;html=1;rounded=0;exitX=0.5;exitY=1;exitDx=0;exitDy=0;entryX=0.5;entryY=0;entryDx=0;entryDy=0;" edge="1" parent="1" source="vW3I8cVeebGqOr11pYuI-5" target="vW3I8cVeebGqOr11pYuI-10">
          <mxGeometry width="50" height="50" relative="1" as="geometry">
            <mxPoint x="390" y="330" as="sourcePoint" />
            <mxPoint x="440" y="280" as="targetPoint" />
          </mxGeometry>
        </mxCell>
        <mxCell id="vW3I8cVeebGqOr11pYuI-12" value="" style="endArrow=classic;html=1;rounded=0;exitX=1;exitY=0.75;exitDx=0;exitDy=0;entryX=0;entryY=0.5;entryDx=0;entryDy=0;" edge="1" parent="1" source="vW3I8cVeebGqOr11pYuI-5" target="vW3I8cVeebGqOr11pYuI-13">
          <mxGeometry width="50" height="50" relative="1" as="geometry">
            <mxPoint x="390" y="330" as="sourcePoint" />
            <mxPoint x="410" y="310" as="targetPoint" />
          </mxGeometry>
        </mxCell>
        <mxCell id="vW3I8cVeebGqOr11pYuI-13" value="RECEBE O DADO DE CADA SENDER&lt;br&gt;&lt;br&gt;CONFIGURA UMA STRING INDIVIDUAL&amp;nbsp;&lt;div&gt;&lt;br&gt;&lt;/div&gt;&lt;div&gt;ENVIO PARA O GATEWAY VIA LORA&lt;/div&gt;" style="shape=process;whiteSpace=wrap;html=1;backgroundOutline=1;" vertex="1" parent="1">
          <mxGeometry x="530" y="190" width="120" height="220" as="geometry" />
        </mxCell>
        <mxCell id="vW3I8cVeebGqOr11pYuI-16" value="" style="endArrow=classic;html=1;rounded=0;exitX=0;exitY=0.5;exitDx=0;exitDy=0;entryX=1;entryY=0.5;entryDx=0;entryDy=0;" edge="1" parent="1" target="vW3I8cVeebGqOr11pYuI-17" source="vW3I8cVeebGqOr11pYuI-10">
          <mxGeometry width="50" height="50" relative="1" as="geometry">
            <mxPoint x="115" y="450" as="sourcePoint" />
            <mxPoint x="570" y="470" as="targetPoint" />
          </mxGeometry>
        </mxCell>
        <mxCell id="vW3I8cVeebGqOr11pYuI-17" value="RECEBE CADA DADO ENVIADO PELO RECEIVER&lt;div&gt;&lt;br&gt;&lt;/div&gt;&lt;div&gt;QUANTO RECEBER CADA DADO&amp;nbsp;&lt;span style=&quot;background-color: initial;&quot;&gt;JUNTA NUMA STRING ÚNICA&lt;/span&gt;&lt;div&gt;&lt;br&gt;&lt;/div&gt;&lt;div&gt;ENVIA PARA O BROKER MQTT VIA WIFI&lt;/div&gt;&lt;/div&gt;" style="shape=process;whiteSpace=wrap;html=1;backgroundOutline=1;" vertex="1" parent="1">
          <mxGeometry x="20" y="330" width="120" height="220" as="geometry" />
        </mxCell>
      </root>
    </mxGraphModel>
  </diagram>
</mxfile>
